<mxfile host="Electron" agent="Mozilla/5.0 (Windows NT 10.0; Win64; x64) AppleWebKit/537.36 (KHTML, like Gecko) draw.io/28.0.6 Chrome/138.0.7204.100 Electron/37.2.3 Safari/537.36" version="28.0.6">
  <diagram id="gKfQR6QMqfabCFEobmAz" name="Page-1">
    <mxGraphModel dx="1126" dy="745" grid="1" gridSize="10" guides="1" tooltips="1" connect="1" arrows="1" fold="1" page="1" pageScale="1" pageWidth="1100" pageHeight="850" math="0" shadow="0">
      <root>
        <mxCell id="0" />
        <mxCell id="1" parent="0" />
        <mxCell id="Fho4y9NvzUoqDBFK6mao-48" value="" style="rounded=0;whiteSpace=wrap;html=1;dashed=1;dashPattern=12 12;" parent="1" vertex="1">
          <mxGeometry x="860" y="100" width="180" height="420" as="geometry" />
        </mxCell>
        <mxCell id="Fho4y9NvzUoqDBFK6mao-47" value="" style="rounded=0;whiteSpace=wrap;html=1;dashed=1;dashPattern=12 12;" parent="1" vertex="1">
          <mxGeometry x="100" y="40" width="720" height="660" as="geometry" />
        </mxCell>
        <mxCell id="f6vRZK2oa4QjY8WZpOiV-4" value="&lt;font style=&quot;font-size: 14px;&quot;&gt;&lt;b&gt;PC&lt;/b&gt;&lt;/font&gt;" style="rounded=0;whiteSpace=wrap;html=1;fillColor=#99FFFF;" parent="1" vertex="1">
          <mxGeometry x="360" y="80" width="60" height="40" as="geometry" />
        </mxCell>
        <mxCell id="f6vRZK2oa4QjY8WZpOiV-7" value="&lt;font style=&quot;font-size: 14px;&quot;&gt;&lt;b&gt;Stack&lt;/b&gt;&lt;/font&gt;" style="rounded=0;whiteSpace=wrap;html=1;dashed=1;" parent="1" vertex="1">
          <mxGeometry x="880" y="160" width="80" height="80" as="geometry" />
        </mxCell>
        <mxCell id="f6vRZK2oa4QjY8WZpOiV-8" value="&lt;font style=&quot;font-size: 14px;&quot;&gt;&lt;b&gt;Data&lt;/b&gt;&lt;/font&gt;" style="rounded=0;whiteSpace=wrap;html=1;dashed=1;" parent="1" vertex="1">
          <mxGeometry x="880" y="250" width="80" height="80" as="geometry" />
        </mxCell>
        <mxCell id="f6vRZK2oa4QjY8WZpOiV-9" value="&lt;font style=&quot;font-size: 14px;&quot;&gt;&lt;b&gt;Program&lt;/b&gt;&lt;/font&gt;" style="rounded=0;whiteSpace=wrap;html=1;dashed=1;" parent="1" vertex="1">
          <mxGeometry x="880" y="340" width="80" height="160" as="geometry" />
        </mxCell>
        <mxCell id="f6vRZK2oa4QjY8WZpOiV-10" value="&lt;b style=&quot;font-family: &amp;quot;Courier New&amp;quot;;&quot;&gt;0x0000&lt;/b&gt;" style="text;html=1;align=left;verticalAlign=middle;whiteSpace=wrap;rounded=0;imageAlign=right;" parent="1" vertex="1">
          <mxGeometry x="970" y="470" width="60" height="30" as="geometry" />
        </mxCell>
        <mxCell id="f6vRZK2oa4QjY8WZpOiV-11" value="&lt;b style=&quot;font-family: &amp;quot;Courier New&amp;quot;;&quot;&gt;0x0BFF&lt;/b&gt;" style="text;html=1;align=left;verticalAlign=middle;whiteSpace=wrap;rounded=0;imageAlign=right;" parent="1" vertex="1">
          <mxGeometry x="970" y="340" width="60" height="30" as="geometry" />
        </mxCell>
        <mxCell id="f6vRZK2oa4QjY8WZpOiV-12" value="&lt;b style=&quot;font-family: &amp;quot;Courier New&amp;quot;;&quot;&gt;0x0C00&lt;/b&gt;" style="text;html=1;align=left;verticalAlign=middle;whiteSpace=wrap;rounded=0;imageAlign=right;" parent="1" vertex="1">
          <mxGeometry x="970" y="305" width="60" height="30" as="geometry" />
        </mxCell>
        <mxCell id="f6vRZK2oa4QjY8WZpOiV-13" value="&lt;b style=&quot;font-family: &amp;quot;Courier New&amp;quot;;&quot;&gt;0x0EFF&lt;/b&gt;" style="text;html=1;align=left;verticalAlign=middle;whiteSpace=wrap;rounded=0;imageAlign=right;" parent="1" vertex="1">
          <mxGeometry x="970" y="250" width="60" height="30" as="geometry" />
        </mxCell>
        <mxCell id="f6vRZK2oa4QjY8WZpOiV-14" value="&lt;b style=&quot;font-family: &amp;quot;Courier New&amp;quot;;&quot;&gt;0x0F00&lt;/b&gt;" style="text;html=1;align=left;verticalAlign=middle;whiteSpace=wrap;rounded=0;imageAlign=right;" parent="1" vertex="1">
          <mxGeometry x="970" y="210" width="60" height="30" as="geometry" />
        </mxCell>
        <mxCell id="f6vRZK2oa4QjY8WZpOiV-15" value="&lt;b style=&quot;font-family: &amp;quot;Courier New&amp;quot;;&quot;&gt;0x0FFF&lt;/b&gt;" style="text;html=1;align=left;verticalAlign=middle;whiteSpace=wrap;rounded=0;imageAlign=right;" parent="1" vertex="1">
          <mxGeometry x="970" y="160" width="60" height="30" as="geometry" />
        </mxCell>
        <mxCell id="Fho4y9NvzUoqDBFK6mao-1" value="&lt;font style=&quot;font-size: 14px;&quot;&gt;&lt;b&gt;SP&lt;/b&gt;&lt;/font&gt;" style="rounded=0;whiteSpace=wrap;html=1;fillColor=#99FFFF;" parent="1" vertex="1">
          <mxGeometry x="360" y="185" width="60" height="40" as="geometry" />
        </mxCell>
        <mxCell id="Fho4y9NvzUoqDBFK6mao-2" value="&lt;font style=&quot;font-size: 14px;&quot;&gt;&lt;b&gt;DR&lt;/b&gt;&lt;/font&gt;" style="rounded=0;whiteSpace=wrap;html=1;fillColor=#FFCC99;" parent="1" vertex="1">
          <mxGeometry x="360" y="240" width="60" height="40" as="geometry" />
        </mxCell>
        <mxCell id="Fho4y9NvzUoqDBFK6mao-3" value="&lt;font style=&quot;font-size: 14px;&quot;&gt;&lt;b&gt;AC&lt;/b&gt;&lt;/font&gt;" style="rounded=0;whiteSpace=wrap;html=1;fillColor=#FFCC99;" parent="1" vertex="1">
          <mxGeometry x="180" y="520" width="60" height="40" as="geometry" />
        </mxCell>
        <mxCell id="Fho4y9NvzUoqDBFK6mao-4" value="&lt;font style=&quot;font-size: 14px;&quot;&gt;&lt;b&gt;IR&lt;/b&gt;&lt;/font&gt;" style="rounded=0;whiteSpace=wrap;html=1;fillColor=#99FFFF;" parent="1" vertex="1">
          <mxGeometry x="180" y="150" width="60" height="40" as="geometry" />
        </mxCell>
        <mxCell id="Fho4y9NvzUoqDBFK6mao-5" value="&lt;font style=&quot;font-size: 14px;&quot;&gt;&lt;b&gt;OR&lt;/b&gt;&lt;/font&gt;" style="rounded=0;whiteSpace=wrap;html=1;fillColor=#99FFFF;" parent="1" vertex="1">
          <mxGeometry x="180" y="210" width="60" height="40" as="geometry" />
        </mxCell>
        <mxCell id="Fho4y9NvzUoqDBFK6mao-6" value="&lt;font style=&quot;font-size: 14px;&quot;&gt;&lt;b&gt;PR&lt;/b&gt;&lt;/font&gt;" style="rounded=0;whiteSpace=wrap;html=1;fillColor=#99FFFF;" parent="1" vertex="1">
          <mxGeometry x="200" y="295" width="60" height="40" as="geometry" />
        </mxCell>
        <mxCell id="Fho4y9NvzUoqDBFK6mao-7" value="&lt;font style=&quot;font-size: 14px;&quot;&gt;&lt;b&gt;ALU&lt;/b&gt;&lt;/font&gt;" style="rounded=0;whiteSpace=wrap;html=1;fillColor=#CC99FF;" parent="1" vertex="1">
          <mxGeometry x="420" y="520" width="120" height="100" as="geometry" />
        </mxCell>
        <mxCell id="Fho4y9NvzUoqDBFK6mao-8" value="&lt;font style=&quot;font-size: 14px;&quot;&gt;&lt;b&gt;Instruction&lt;/b&gt;&lt;/font&gt;&lt;div&gt;&lt;font style=&quot;font-size: 14px;&quot;&gt;&lt;b&gt;Decoder&lt;/b&gt;&lt;/font&gt;&lt;/div&gt;" style="rounded=0;whiteSpace=wrap;html=1;fillColor=#CC99FF;" parent="1" vertex="1">
          <mxGeometry x="520" y="400" width="120" height="80" as="geometry" />
        </mxCell>
        <mxCell id="Fho4y9NvzUoqDBFK6mao-9" value="&lt;font style=&quot;font-size: 14px;&quot;&gt;&lt;b&gt;Fetch&lt;/b&gt;&lt;/font&gt;" style="rounded=0;whiteSpace=wrap;html=1;verticalAlign=top;fillColor=#CC99FF;" parent="1" vertex="1">
          <mxGeometry x="720" y="290" width="80" height="190" as="geometry" />
        </mxCell>
        <mxCell id="Fho4y9NvzUoqDBFK6mao-11" value="&lt;font style=&quot;font-size: 14px;&quot;&gt;&lt;b&gt;Control&lt;/b&gt;&lt;/font&gt;&lt;div&gt;&lt;font style=&quot;font-size: 14px;&quot;&gt;&lt;b&gt;SM&lt;/b&gt;&lt;/font&gt;&lt;/div&gt;" style="rounded=0;whiteSpace=wrap;html=1;fillColor=#CC99FF;" parent="1" vertex="1">
          <mxGeometry x="720" y="520" width="80" height="160" as="geometry" />
        </mxCell>
        <mxCell id="Fho4y9NvzUoqDBFK6mao-12" value="" style="endArrow=none;html=1;rounded=0;strokeWidth=4;fillColor=#008a00;strokeColor=#005700;" parent="1" edge="1">
          <mxGeometry width="50" height="50" relative="1" as="geometry">
            <mxPoint x="300" y="580" as="sourcePoint" />
            <mxPoint x="300" y="80" as="targetPoint" />
          </mxGeometry>
        </mxCell>
        <mxCell id="Fho4y9NvzUoqDBFK6mao-13" value="" style="endArrow=none;html=1;rounded=0;strokeWidth=4;fillColor=#e51400;strokeColor=#B20000;" parent="1" edge="1">
          <mxGeometry width="50" height="50" relative="1" as="geometry">
            <mxPoint x="480" y="340" as="sourcePoint" />
            <mxPoint x="480" y="80" as="targetPoint" />
          </mxGeometry>
        </mxCell>
        <mxCell id="Fho4y9NvzUoqDBFK6mao-14" value="&lt;font style=&quot;font-size: 14px;&quot;&gt;&lt;b&gt;Data&lt;/b&gt;&lt;/font&gt;" style="text;html=1;align=center;verticalAlign=middle;whiteSpace=wrap;rounded=0;" parent="1" vertex="1">
          <mxGeometry x="270" y="50" width="60" height="30" as="geometry" />
        </mxCell>
        <mxCell id="Fho4y9NvzUoqDBFK6mao-15" value="&lt;font style=&quot;font-size: 14px;&quot;&gt;&lt;b&gt;Address&lt;/b&gt;&lt;/font&gt;" style="text;html=1;align=center;verticalAlign=middle;whiteSpace=wrap;rounded=0;" parent="1" vertex="1">
          <mxGeometry x="450" y="50" width="60" height="30" as="geometry" />
        </mxCell>
        <mxCell id="Fho4y9NvzUoqDBFK6mao-16" value="" style="endArrow=classic;html=1;rounded=0;entryX=0;entryY=0.5;entryDx=0;entryDy=0;fillColor=#008a00;strokeColor=#005700;strokeWidth=2;" parent="1" target="f6vRZK2oa4QjY8WZpOiV-4" edge="1">
          <mxGeometry width="50" height="50" relative="1" as="geometry">
            <mxPoint x="300" y="100" as="sourcePoint" />
            <mxPoint x="350" y="50" as="targetPoint" />
          </mxGeometry>
        </mxCell>
        <mxCell id="Fho4y9NvzUoqDBFK6mao-17" value="" style="endArrow=classic;html=1;rounded=0;entryX=0;entryY=0.5;entryDx=0;entryDy=0;fillColor=#008a00;strokeColor=#005700;strokeWidth=2;" parent="1" edge="1">
          <mxGeometry width="50" height="50" relative="1" as="geometry">
            <mxPoint x="300" y="204.5" as="sourcePoint" />
            <mxPoint x="360" y="204.5" as="targetPoint" />
          </mxGeometry>
        </mxCell>
        <mxCell id="Fho4y9NvzUoqDBFK6mao-19" value="" style="endArrow=classic;html=1;rounded=0;entryX=0;entryY=0.5;entryDx=0;entryDy=0;fillColor=#e51400;strokeColor=#B20000;strokeWidth=2;" parent="1" edge="1">
          <mxGeometry width="50" height="50" relative="1" as="geometry">
            <mxPoint x="420" y="99.5" as="sourcePoint" />
            <mxPoint x="480" y="99.5" as="targetPoint" />
          </mxGeometry>
        </mxCell>
        <mxCell id="Fho4y9NvzUoqDBFK6mao-20" value="" style="endArrow=classic;html=1;rounded=0;entryX=0;entryY=0.5;entryDx=0;entryDy=0;fillColor=#e51400;strokeColor=#B20000;strokeWidth=2;" parent="1" edge="1">
          <mxGeometry width="50" height="50" relative="1" as="geometry">
            <mxPoint x="420" y="204.5" as="sourcePoint" />
            <mxPoint x="480" y="204.5" as="targetPoint" />
          </mxGeometry>
        </mxCell>
        <mxCell id="Fho4y9NvzUoqDBFK6mao-21" value="" style="endArrow=classic;html=1;rounded=0;entryX=0;entryY=0.5;entryDx=0;entryDy=0;fillColor=#e51400;strokeColor=#B20000;strokeWidth=2;" parent="1" edge="1">
          <mxGeometry width="50" height="50" relative="1" as="geometry">
            <mxPoint x="420" y="259.5" as="sourcePoint" />
            <mxPoint x="480" y="259.5" as="targetPoint" />
          </mxGeometry>
        </mxCell>
        <mxCell id="Fho4y9NvzUoqDBFK6mao-22" value="" style="endArrow=classic;html=1;rounded=0;fillColor=#e51400;strokeColor=#B20000;strokeWidth=2;" parent="1" edge="1">
          <mxGeometry width="50" height="50" relative="1" as="geometry">
            <mxPoint x="480" y="319.5" as="sourcePoint" />
            <mxPoint x="720" y="319.5" as="targetPoint" />
          </mxGeometry>
        </mxCell>
        <mxCell id="Fho4y9NvzUoqDBFK6mao-23" value="&lt;font style=&quot;font-size: 14px;&quot;&gt;&lt;b&gt;A&lt;/b&gt;&lt;/font&gt;" style="text;html=1;align=right;verticalAlign=middle;whiteSpace=wrap;rounded=0;" parent="1" vertex="1">
          <mxGeometry x="740" y="365" width="60" height="30" as="geometry" />
        </mxCell>
        <mxCell id="Fho4y9NvzUoqDBFK6mao-24" value="&lt;font style=&quot;font-size: 14px;&quot;&gt;&lt;b&gt;D&lt;/b&gt;&lt;/font&gt;" style="text;html=1;align=right;verticalAlign=middle;whiteSpace=wrap;rounded=0;" parent="1" vertex="1">
          <mxGeometry x="740" y="410" width="60" height="30" as="geometry" />
        </mxCell>
        <mxCell id="Fho4y9NvzUoqDBFK6mao-25" value="" style="endArrow=classic;html=1;rounded=0;fillColor=#e51400;strokeColor=#B20000;strokeWidth=2;" parent="1" edge="1">
          <mxGeometry width="50" height="50" relative="1" as="geometry">
            <mxPoint x="800" y="379.5" as="sourcePoint" />
            <mxPoint x="860" y="380" as="targetPoint" />
          </mxGeometry>
        </mxCell>
        <mxCell id="Fho4y9NvzUoqDBFK6mao-26" value="" style="endArrow=classic;startArrow=classic;html=1;rounded=0;strokeWidth=2;fillColor=#008a00;strokeColor=#005700;" parent="1" edge="1">
          <mxGeometry width="50" height="50" relative="1" as="geometry">
            <mxPoint x="800" y="424" as="sourcePoint" />
            <mxPoint x="860" y="424" as="targetPoint" />
          </mxGeometry>
        </mxCell>
        <mxCell id="Fho4y9NvzUoqDBFK6mao-27" value="" style="endArrow=classic;html=1;rounded=0;fillColor=#008a00;strokeColor=#005700;strokeWidth=2;" parent="1" edge="1">
          <mxGeometry width="50" height="50" relative="1" as="geometry">
            <mxPoint x="300" y="230" as="sourcePoint" />
            <mxPoint x="240" y="230" as="targetPoint" />
          </mxGeometry>
        </mxCell>
        <mxCell id="Fho4y9NvzUoqDBFK6mao-28" value="" style="endArrow=classic;html=1;rounded=0;entryX=0;entryY=0.5;entryDx=0;entryDy=0;fillColor=#008a00;strokeColor=#005700;strokeWidth=2;" parent="1" edge="1">
          <mxGeometry width="50" height="50" relative="1" as="geometry">
            <mxPoint x="240" y="170" as="sourcePoint" />
            <mxPoint x="300" y="170" as="targetPoint" />
          </mxGeometry>
        </mxCell>
        <mxCell id="Fho4y9NvzUoqDBFK6mao-29" value="" style="endArrow=classic;html=1;rounded=0;fillColor=#008a00;strokeColor=#005700;strokeWidth=2;" parent="1" edge="1">
          <mxGeometry width="50" height="50" relative="1" as="geometry">
            <mxPoint x="300" y="314" as="sourcePoint" />
            <mxPoint x="260" y="314" as="targetPoint" />
          </mxGeometry>
        </mxCell>
        <mxCell id="Fho4y9NvzUoqDBFK6mao-30" value="" style="endArrow=classic;startArrow=classic;html=1;rounded=0;fillColor=#008a00;strokeColor=#005700;strokeWidth=2;" parent="1" edge="1">
          <mxGeometry width="50" height="50" relative="1" as="geometry">
            <mxPoint x="240" y="539.5" as="sourcePoint" />
            <mxPoint x="300" y="539.5" as="targetPoint" />
          </mxGeometry>
        </mxCell>
        <mxCell id="Fho4y9NvzUoqDBFK6mao-31" value="" style="endArrow=classic;startArrow=classic;html=1;rounded=0;fillColor=#008a00;strokeColor=#005700;strokeWidth=2;" parent="1" edge="1">
          <mxGeometry width="50" height="50" relative="1" as="geometry">
            <mxPoint x="300" y="259.5" as="sourcePoint" />
            <mxPoint x="360" y="259.5" as="targetPoint" />
          </mxGeometry>
        </mxCell>
        <mxCell id="Fho4y9NvzUoqDBFK6mao-33" value="" style="endArrow=classic;html=1;rounded=0;entryX=1.008;entryY=0.793;entryDx=0;entryDy=0;entryPerimeter=0;" parent="1" target="Fho4y9NvzUoqDBFK6mao-7" edge="1">
          <mxGeometry width="50" height="50" relative="1" as="geometry">
            <mxPoint x="720" y="601" as="sourcePoint" />
            <mxPoint x="560" y="600" as="targetPoint" />
          </mxGeometry>
        </mxCell>
        <mxCell id="Fho4y9NvzUoqDBFK6mao-34" value="" style="endArrow=classic;html=1;rounded=0;" parent="1" edge="1">
          <mxGeometry width="50" height="50" relative="1" as="geometry">
            <mxPoint x="759.5" y="520" as="sourcePoint" />
            <mxPoint x="759.5" y="480" as="targetPoint" />
          </mxGeometry>
        </mxCell>
        <mxCell id="Fho4y9NvzUoqDBFK6mao-36" value="" style="endArrow=none;startArrow=classic;html=1;rounded=0;fillColor=#008a00;strokeColor=#005700;strokeWidth=2;entryX=0;entryY=0.808;entryDx=0;entryDy=0;entryPerimeter=0;endFill=0;" parent="1" edge="1">
          <mxGeometry width="50" height="50" relative="1" as="geometry">
            <mxPoint x="300" y="569.5" as="sourcePoint" />
            <mxPoint x="420" y="570.3" as="targetPoint" />
          </mxGeometry>
        </mxCell>
        <mxCell id="Fho4y9NvzUoqDBFK6mao-40" value="" style="endArrow=classic;html=1;rounded=0;" parent="1" edge="1">
          <mxGeometry width="50" height="50" relative="1" as="geometry">
            <mxPoint x="180" y="230" as="sourcePoint" />
            <mxPoint x="80" y="230" as="targetPoint" />
          </mxGeometry>
        </mxCell>
        <mxCell id="Fho4y9NvzUoqDBFK6mao-41" value="" style="endArrow=classic;html=1;rounded=0;entryX=0;entryY=0.5;entryDx=0;entryDy=0;" parent="1" target="Fho4y9NvzUoqDBFK6mao-4" edge="1">
          <mxGeometry width="50" height="50" relative="1" as="geometry">
            <mxPoint x="80" y="170" as="sourcePoint" />
            <mxPoint x="190" y="120" as="targetPoint" />
          </mxGeometry>
        </mxCell>
        <mxCell id="Fho4y9NvzUoqDBFK6mao-43" value="&lt;font&gt;&lt;b&gt;&lt;u&gt;Memory&lt;/u&gt;&lt;/b&gt;&lt;/font&gt;" style="text;html=1;align=center;verticalAlign=middle;whiteSpace=wrap;rounded=0;fontSize=14;" parent="1" vertex="1">
          <mxGeometry x="920" y="110" width="60" height="30" as="geometry" />
        </mxCell>
        <mxCell id="Fho4y9NvzUoqDBFK6mao-44" value="I/O" style="text;html=1;align=center;verticalAlign=middle;whiteSpace=wrap;rounded=0;" parent="1" vertex="1">
          <mxGeometry x="30" y="155" width="60" height="30" as="geometry" />
        </mxCell>
        <mxCell id="Fho4y9NvzUoqDBFK6mao-45" value="I/O" style="text;html=1;align=center;verticalAlign=middle;whiteSpace=wrap;rounded=0;" parent="1" vertex="1">
          <mxGeometry x="30" y="215" width="60" height="30" as="geometry" />
        </mxCell>
        <mxCell id="Fho4y9NvzUoqDBFK6mao-46" value="Serial" style="text;html=1;align=center;verticalAlign=middle;whiteSpace=wrap;rounded=0;" parent="1" vertex="1">
          <mxGeometry x="20" y="340" width="60" height="30" as="geometry" />
        </mxCell>
        <mxCell id="Fho4y9NvzUoqDBFK6mao-49" value="&lt;font&gt;&lt;b&gt;&lt;u&gt;StackCPU&lt;/u&gt;&lt;/b&gt;&lt;/font&gt;" style="text;html=1;align=center;verticalAlign=middle;whiteSpace=wrap;rounded=0;fontSize=14;" parent="1" vertex="1">
          <mxGeometry x="730" y="60" width="60" height="30" as="geometry" />
        </mxCell>
        <mxCell id="Fho4y9NvzUoqDBFK6mao-50" value="" style="endArrow=classic;html=1;rounded=0;exitX=1;exitY=0.5;exitDx=0;exitDy=0;" parent="1" source="Fho4y9NvzUoqDBFK6mao-51" edge="1">
          <mxGeometry width="50" height="50" relative="1" as="geometry">
            <mxPoint x="140" y="640" as="sourcePoint" />
            <mxPoint x="720" y="640" as="targetPoint" />
          </mxGeometry>
        </mxCell>
        <mxCell id="Fho4y9NvzUoqDBFK6mao-51" value="Clock" style="text;html=1;align=center;verticalAlign=middle;whiteSpace=wrap;rounded=0;" parent="1" vertex="1">
          <mxGeometry x="20" y="625" width="60" height="30" as="geometry" />
        </mxCell>
        <mxCell id="Fho4y9NvzUoqDBFK6mao-52" value="&lt;font style=&quot;font-size: 14px;&quot;&gt;&lt;b&gt;SR&lt;/b&gt;&lt;/font&gt;" style="rounded=0;whiteSpace=wrap;html=1;fillColor=#99FFFF;" parent="1" vertex="1">
          <mxGeometry x="200" y="375" width="60" height="40" as="geometry" />
        </mxCell>
        <mxCell id="Fho4y9NvzUoqDBFK6mao-53" value="&lt;font style=&quot;font-size: 14px;&quot;&gt;&lt;b&gt;UART&lt;/b&gt;&lt;/font&gt;" style="rounded=0;whiteSpace=wrap;html=1;fillColor=#CC99FF;" parent="1" vertex="1">
          <mxGeometry x="120" y="335" width="60" height="40" as="geometry" />
        </mxCell>
        <mxCell id="Fho4y9NvzUoqDBFK6mao-54" value="" style="endArrow=none;html=1;rounded=0;exitX=0;exitY=0.5;exitDx=0;exitDy=0;" parent="1" source="Fho4y9NvzUoqDBFK6mao-6" edge="1">
          <mxGeometry width="50" height="50" relative="1" as="geometry">
            <mxPoint x="150" y="335" as="sourcePoint" />
            <mxPoint x="150" y="315" as="targetPoint" />
          </mxGeometry>
        </mxCell>
        <mxCell id="Fho4y9NvzUoqDBFK6mao-55" value="" style="endArrow=none;html=1;rounded=0;" parent="1" edge="1">
          <mxGeometry width="50" height="50" relative="1" as="geometry">
            <mxPoint x="150" y="395" as="sourcePoint" />
            <mxPoint x="150" y="375" as="targetPoint" />
          </mxGeometry>
        </mxCell>
        <mxCell id="Fho4y9NvzUoqDBFK6mao-56" value="" style="endArrow=classic;html=1;rounded=0;entryX=0;entryY=0.5;entryDx=0;entryDy=0;" parent="1" target="Fho4y9NvzUoqDBFK6mao-52" edge="1">
          <mxGeometry width="50" height="50" relative="1" as="geometry">
            <mxPoint x="150" y="395" as="sourcePoint" />
            <mxPoint x="200" y="345" as="targetPoint" />
          </mxGeometry>
        </mxCell>
        <mxCell id="Fho4y9NvzUoqDBFK6mao-57" value="" style="endArrow=classic;html=1;rounded=0;fillColor=#008a00;strokeColor=#005700;strokeWidth=2;" parent="1" edge="1">
          <mxGeometry width="50" height="50" relative="1" as="geometry">
            <mxPoint x="260" y="395" as="sourcePoint" />
            <mxPoint x="300" y="395" as="targetPoint" />
          </mxGeometry>
        </mxCell>
        <mxCell id="Fho4y9NvzUoqDBFK6mao-58" value="" style="endArrow=classic;html=1;rounded=0;entryX=0.5;entryY=0;entryDx=0;entryDy=0;" parent="1" target="Fho4y9NvzUoqDBFK6mao-53" edge="1">
          <mxGeometry width="50" height="50" relative="1" as="geometry">
            <mxPoint x="150" y="315" as="sourcePoint" />
            <mxPoint x="200" y="265" as="targetPoint" />
          </mxGeometry>
        </mxCell>
        <mxCell id="Fho4y9NvzUoqDBFK6mao-59" value="" style="endArrow=classic;startArrow=classic;html=1;rounded=0;entryX=0;entryY=0.5;entryDx=0;entryDy=0;" parent="1" target="Fho4y9NvzUoqDBFK6mao-53" edge="1">
          <mxGeometry width="50" height="50" relative="1" as="geometry">
            <mxPoint x="80" y="355" as="sourcePoint" />
            <mxPoint x="130" y="305" as="targetPoint" />
          </mxGeometry>
        </mxCell>
        <mxCell id="Fho4y9NvzUoqDBFK6mao-60" value="" style="endArrow=classic;html=1;rounded=0;entryX=-0.012;entryY=0.357;entryDx=0;entryDy=0;entryPerimeter=0;" parent="1" edge="1">
          <mxGeometry width="50" height="50" relative="1" as="geometry">
            <mxPoint x="581" y="560" as="sourcePoint" />
            <mxPoint x="720.0000000000002" y="559.9999999999999" as="targetPoint" />
          </mxGeometry>
        </mxCell>
        <mxCell id="Fho4y9NvzUoqDBFK6mao-61" value="" style="endArrow=none;html=1;rounded=0;entryX=0.833;entryY=1;entryDx=0;entryDy=0;entryPerimeter=0;" parent="1" edge="1">
          <mxGeometry width="50" height="50" relative="1" as="geometry">
            <mxPoint x="581" y="560" as="sourcePoint" />
            <mxPoint x="580.71" y="480" as="targetPoint" />
          </mxGeometry>
        </mxCell>
        <mxCell id="rM1LoHd6A7a-jdQEZuMe-1" value="" style="endArrow=classic;html=1;rounded=0;exitX=0.008;exitY=0.364;exitDx=0;exitDy=0;exitPerimeter=0;startArrow=classic;startFill=1;fillColor=#008a00;strokeColor=#005700;strokeWidth=2;" parent="1" source="Fho4y9NvzUoqDBFK6mao-9" edge="1">
          <mxGeometry width="50" height="50" relative="1" as="geometry">
            <mxPoint x="560" y="360" as="sourcePoint" />
            <mxPoint x="300" y="360" as="targetPoint" />
          </mxGeometry>
        </mxCell>
        <mxCell id="bSjTUGO-wTPSp2l6D-p6-1" value="" style="endArrow=classic;html=1;rounded=0;entryX=0.5;entryY=0;entryDx=0;entryDy=0;fillColor=#008a00;strokeColor=#005700;strokeWidth=2;" parent="1" target="Fho4y9NvzUoqDBFK6mao-8" edge="1">
          <mxGeometry width="50" height="50" relative="1" as="geometry">
            <mxPoint x="580" y="360" as="sourcePoint" />
            <mxPoint x="630" y="310" as="targetPoint" />
          </mxGeometry>
        </mxCell>
        <mxCell id="UxbXW3qyYCS33U5UK6KU-1" value="" style="endArrow=classic;html=1;rounded=0;" parent="1" edge="1">
          <mxGeometry width="50" height="50" relative="1" as="geometry">
            <mxPoint x="800" y="460" as="sourcePoint" />
            <mxPoint x="860" y="460.5" as="targetPoint" />
          </mxGeometry>
        </mxCell>
        <mxCell id="UxbXW3qyYCS33U5UK6KU-2" value="&lt;font style=&quot;font-size: 14px;&quot;&gt;&lt;b&gt;CTL&lt;/b&gt;&lt;/font&gt;" style="text;html=1;align=right;verticalAlign=middle;whiteSpace=wrap;rounded=0;" parent="1" vertex="1">
          <mxGeometry x="740" y="444" width="60" height="30" as="geometry" />
        </mxCell>
        <mxCell id="var7Q2OGhF2rjD9cou5w-1" value="&lt;font style=&quot;font-size: 14px;&quot;&gt;&lt;b&gt;TR&lt;/b&gt;&lt;/font&gt;" style="rounded=0;whiteSpace=wrap;html=1;fillColor=#FFCC99;" parent="1" vertex="1">
          <mxGeometry x="360" y="439" width="60" height="40" as="geometry" />
        </mxCell>
        <mxCell id="var7Q2OGhF2rjD9cou5w-2" value="" style="endArrow=classic;startArrow=none;html=1;rounded=0;fillColor=#008a00;strokeColor=#005700;strokeWidth=2;startFill=0;" parent="1" edge="1">
          <mxGeometry width="50" height="50" relative="1" as="geometry">
            <mxPoint x="300" y="458.5" as="sourcePoint" />
            <mxPoint x="360" y="458.5" as="targetPoint" />
          </mxGeometry>
        </mxCell>
        <mxCell id="var7Q2OGhF2rjD9cou5w-4" value="" style="endArrow=classic;html=1;rounded=0;entryX=-0.002;entryY=0.202;entryDx=0;entryDy=0;entryPerimeter=0;strokeWidth=2;fillColor=#008a00;strokeColor=#005700;" parent="1" target="Fho4y9NvzUoqDBFK6mao-7" edge="1">
          <mxGeometry width="50" height="50" relative="1" as="geometry">
            <mxPoint x="390" y="540" as="sourcePoint" />
            <mxPoint x="440" y="490" as="targetPoint" />
          </mxGeometry>
        </mxCell>
        <mxCell id="var7Q2OGhF2rjD9cou5w-5" value="" style="endArrow=none;html=1;rounded=0;entryX=0.5;entryY=1;entryDx=0;entryDy=0;strokeWidth=2;fillColor=#008a00;strokeColor=#005700;" parent="1" target="Fho4y9NvzUoqDBFK6mao-3" edge="1">
          <mxGeometry width="50" height="50" relative="1" as="geometry">
            <mxPoint x="210" y="600" as="sourcePoint" />
            <mxPoint x="260" y="550" as="targetPoint" />
          </mxGeometry>
        </mxCell>
        <mxCell id="var7Q2OGhF2rjD9cou5w-6" value="" style="endArrow=classic;html=1;rounded=0;entryX=0;entryY=0.8;entryDx=0;entryDy=0;entryPerimeter=0;fillColor=#008a00;strokeColor=#005700;strokeWidth=2;" parent="1" target="Fho4y9NvzUoqDBFK6mao-7" edge="1">
          <mxGeometry width="50" height="50" relative="1" as="geometry">
            <mxPoint x="210" y="600" as="sourcePoint" />
            <mxPoint x="260" y="550" as="targetPoint" />
          </mxGeometry>
        </mxCell>
        <mxCell id="var7Q2OGhF2rjD9cou5w-7" value="" style="endArrow=none;html=1;rounded=0;entryX=0.5;entryY=1;entryDx=0;entryDy=0;strokeWidth=2;fillColor=#008a00;strokeColor=#005700;" parent="1" target="var7Q2OGhF2rjD9cou5w-1" edge="1">
          <mxGeometry width="50" height="50" relative="1" as="geometry">
            <mxPoint x="390" y="540" as="sourcePoint" />
            <mxPoint x="440" y="490" as="targetPoint" />
          </mxGeometry>
        </mxCell>
        <mxCell id="var7Q2OGhF2rjD9cou5w-8" value="" style="endArrow=classic;html=1;rounded=0;" parent="1" edge="1">
          <mxGeometry width="50" height="50" relative="1" as="geometry">
            <mxPoint x="800" y="639.5" as="sourcePoint" />
            <mxPoint x="860" y="640" as="targetPoint" />
          </mxGeometry>
        </mxCell>
        <mxCell id="var7Q2OGhF2rjD9cou5w-9" value="" style="endArrow=classic;html=1;rounded=0;" parent="1" edge="1">
          <mxGeometry width="50" height="50" relative="1" as="geometry">
            <mxPoint x="800" y="659" as="sourcePoint" />
            <mxPoint x="860" y="659.5" as="targetPoint" />
          </mxGeometry>
        </mxCell>
        <mxCell id="var7Q2OGhF2rjD9cou5w-10" value="ClkOut" style="text;html=1;align=center;verticalAlign=middle;whiteSpace=wrap;rounded=0;" parent="1" vertex="1">
          <mxGeometry x="860" y="625" width="60" height="30" as="geometry" />
        </mxCell>
        <mxCell id="var7Q2OGhF2rjD9cou5w-11" value="RstOut" style="text;html=1;align=center;verticalAlign=middle;whiteSpace=wrap;rounded=0;" parent="1" vertex="1">
          <mxGeometry x="860" y="644" width="60" height="30" as="geometry" />
        </mxCell>
        <mxCell id="var7Q2OGhF2rjD9cou5w-12" value="" style="endArrow=classic;html=1;rounded=0;exitX=1;exitY=0.5;exitDx=0;exitDy=0;" parent="1" edge="1">
          <mxGeometry width="50" height="50" relative="1" as="geometry">
            <mxPoint x="80" y="660" as="sourcePoint" />
            <mxPoint x="720" y="660" as="targetPoint" />
          </mxGeometry>
        </mxCell>
        <mxCell id="var7Q2OGhF2rjD9cou5w-13" value="Reset" style="text;html=1;align=center;verticalAlign=middle;whiteSpace=wrap;rounded=0;" parent="1" vertex="1">
          <mxGeometry x="20" y="644" width="60" height="30" as="geometry" />
        </mxCell>
        <mxCell id="mTNLLhxQopC9xtaMulSd-1" value="&lt;font style=&quot;font-size: 14px;&quot;&gt;&lt;b&gt;Incr&lt;/b&gt;&lt;/font&gt;" style="rounded=0;whiteSpace=wrap;html=1;fillColor=#CC99FF;" vertex="1" parent="1">
          <mxGeometry x="360" y="130" width="60" height="30" as="geometry" />
        </mxCell>
        <mxCell id="mTNLLhxQopC9xtaMulSd-2" value="&lt;font style=&quot;font-size: 14px;&quot;&gt;&lt;b&gt;Incr&lt;/b&gt;&lt;/font&gt;" style="rounded=0;whiteSpace=wrap;html=1;fillColor=#CC99FF;" vertex="1" parent="1">
          <mxGeometry x="360" y="290" width="60" height="30" as="geometry" />
        </mxCell>
        <mxCell id="mTNLLhxQopC9xtaMulSd-3" value="" style="endArrow=none;html=1;rounded=0;" edge="1" parent="1">
          <mxGeometry width="50" height="50" relative="1" as="geometry">
            <mxPoint x="450" y="150" as="sourcePoint" />
            <mxPoint x="450" y="100" as="targetPoint" />
          </mxGeometry>
        </mxCell>
        <mxCell id="mTNLLhxQopC9xtaMulSd-4" value="" style="endArrow=classic;html=1;rounded=0;" edge="1" parent="1">
          <mxGeometry width="50" height="50" relative="1" as="geometry">
            <mxPoint x="450" y="150" as="sourcePoint" />
            <mxPoint x="420" y="150" as="targetPoint" />
          </mxGeometry>
        </mxCell>
        <mxCell id="mTNLLhxQopC9xtaMulSd-5" value="" style="endArrow=none;html=1;rounded=0;" edge="1" parent="1">
          <mxGeometry width="50" height="50" relative="1" as="geometry">
            <mxPoint x="330" y="150" as="sourcePoint" />
            <mxPoint x="360" y="150" as="targetPoint" />
          </mxGeometry>
        </mxCell>
        <mxCell id="mTNLLhxQopC9xtaMulSd-6" value="" style="endArrow=classic;html=1;rounded=0;" edge="1" parent="1">
          <mxGeometry width="50" height="50" relative="1" as="geometry">
            <mxPoint x="330" y="150" as="sourcePoint" />
            <mxPoint x="330" y="100" as="targetPoint" />
          </mxGeometry>
        </mxCell>
        <mxCell id="mTNLLhxQopC9xtaMulSd-7" value="" style="endArrow=none;html=1;rounded=0;" edge="1" parent="1">
          <mxGeometry width="50" height="50" relative="1" as="geometry">
            <mxPoint x="450" y="310" as="sourcePoint" />
            <mxPoint x="450" y="260" as="targetPoint" />
          </mxGeometry>
        </mxCell>
        <mxCell id="mTNLLhxQopC9xtaMulSd-8" value="" style="endArrow=classic;html=1;rounded=0;" edge="1" parent="1">
          <mxGeometry width="50" height="50" relative="1" as="geometry">
            <mxPoint x="450" y="309.76" as="sourcePoint" />
            <mxPoint x="420" y="309.76" as="targetPoint" />
          </mxGeometry>
        </mxCell>
        <mxCell id="mTNLLhxQopC9xtaMulSd-10" value="" style="endArrow=none;html=1;rounded=0;" edge="1" parent="1">
          <mxGeometry width="50" height="50" relative="1" as="geometry">
            <mxPoint x="330" y="310" as="sourcePoint" />
            <mxPoint x="360" y="310" as="targetPoint" />
          </mxGeometry>
        </mxCell>
        <mxCell id="mTNLLhxQopC9xtaMulSd-11" value="" style="endArrow=classic;html=1;rounded=0;" edge="1" parent="1">
          <mxGeometry width="50" height="50" relative="1" as="geometry">
            <mxPoint x="330" y="310" as="sourcePoint" />
            <mxPoint x="330" y="260" as="targetPoint" />
          </mxGeometry>
        </mxCell>
      </root>
    </mxGraphModel>
  </diagram>
</mxfile>
